<svg width="478" height="341" viewBox="0 0 478 341" fill="none" xmlns="http://www.w3.org/2000/svg">
<path d="M127.827 112.891V36.1574L171.855 112.891H127.827Z" fill="#1F8197"/>
<path d="M127.827 146.258V176.993C127.827 187.507 136.35 196.03 146.864 196.03H219.558L191 146.258H127.827Z" fill="#1F8197"/>
<path d="M229.469 146.258L255.42 191.488C279.218 183.964 299.089 167.604 311.182 146.258H229.469Z" fill="#1F8197"/>
<path d="M322.735 112.891C323.474 108.04 323.857 103.072 323.857 98.015C323.857 43.8828 279.974 0 225.842 0H146.864C146.43 0 146.001 0.0144811 145.574 0.0429857L210.324 112.891H322.735Z" fill="#1F8197"/>
<path d="M0 339.209L34.1291 254.429H47.5155L81.524 339.209H64.0374L37.7471 269.624H43.777L17.1249 339.209H0ZM18.0896 323.411V309.663H63.6756V323.411H18.0896Z" fill="#404040"/>
<path d="M107.795 340.536C104.499 340.536 101.243 340.094 98.0271 339.209C94.8915 338.325 91.9972 337.119 89.344 335.591C86.6909 333.983 84.3995 332.054 82.47 329.803L91.8766 320.275C93.8865 322.527 96.2181 324.215 98.8712 325.341C101.524 326.466 104.459 327.029 107.675 327.029C110.248 327.029 112.177 326.667 113.464 325.944C114.83 325.22 115.514 324.135 115.514 322.687C115.514 321.079 114.79 319.833 113.343 318.949C111.976 318.065 110.167 317.341 107.916 316.778C105.665 316.135 103.293 315.452 100.801 314.728C98.3889 313.924 96.0573 312.919 93.8061 311.713C91.555 310.427 89.7058 308.698 88.2587 306.527C86.8919 304.276 86.2085 301.382 86.2085 297.844C86.2085 294.146 87.0929 290.93 88.8616 288.196C90.7108 285.463 93.3238 283.332 96.7005 281.805C100.077 280.277 104.057 279.513 108.64 279.513C113.464 279.513 117.805 280.358 121.664 282.046C125.604 283.734 128.86 286.267 131.433 289.644L121.905 299.171C120.137 297 118.127 295.432 115.876 294.468C113.705 293.503 111.333 293.02 108.76 293.02C106.429 293.02 104.62 293.382 103.333 294.106C102.127 294.829 101.524 295.834 101.524 297.121C101.524 298.568 102.208 299.693 103.575 300.497C105.022 301.301 106.871 302.025 109.122 302.668C111.373 303.231 113.705 303.914 116.117 304.718C118.609 305.442 120.941 306.487 123.111 307.854C125.363 309.221 127.171 311.03 128.538 313.281C129.985 315.532 130.709 318.426 130.709 321.964C130.709 327.672 128.659 332.215 124.559 335.591C120.458 338.888 114.871 340.536 107.795 340.536Z" fill="#404040"/>
<path d="M165.843 340.415C159.894 340.415 154.547 339.089 149.804 336.436C145.06 333.782 141.322 330.164 138.588 325.582C135.855 320.999 134.488 315.854 134.488 310.145C134.488 304.357 135.855 299.171 138.588 294.588C141.322 290.005 145.06 286.388 149.804 283.734C154.628 281.001 159.974 279.634 165.843 279.634C170.426 279.634 174.647 280.478 178.506 282.167C182.365 283.855 185.702 286.267 188.516 289.402L178.386 299.653C176.858 297.965 175.009 296.679 172.838 295.794C170.748 294.91 168.416 294.468 165.843 294.468C162.949 294.468 160.336 295.151 158.005 296.518C155.753 297.804 153.944 299.613 152.578 301.945C151.291 304.196 150.648 306.889 150.648 310.025C150.648 313.08 151.291 315.813 152.578 318.225C153.944 320.557 155.753 322.406 158.005 323.773C160.336 325.059 162.949 325.702 165.843 325.702C168.497 325.702 170.868 325.26 172.959 324.376C175.129 323.411 176.979 322.044 178.506 320.275L188.757 330.526C185.782 333.742 182.365 336.194 178.506 337.883C174.647 339.571 170.426 340.415 165.843 340.415Z" fill="#404040"/>
<path d="M194.689 339.209V280.961H210.608V339.209H194.689ZM202.648 271.554C200.076 271.554 197.945 270.71 196.257 269.021C194.568 267.253 193.724 265.082 193.724 262.509C193.724 260.017 194.568 257.886 196.257 256.118C197.945 254.349 200.076 253.464 202.648 253.464C205.301 253.464 207.432 254.349 209.04 256.118C210.728 257.886 211.573 260.017 211.573 262.509C211.573 265.082 210.728 267.253 209.04 269.021C207.432 270.71 205.301 271.554 202.648 271.554Z" fill="#404040"/>
<path d="M221.588 339.209V280.961H237.507V339.209H221.588ZM229.547 271.554C226.975 271.554 224.844 270.71 223.156 269.021C221.467 267.253 220.623 265.082 220.623 262.509C220.623 260.017 221.467 257.886 223.156 256.118C224.844 254.349 226.975 253.464 229.547 253.464C232.2 253.464 234.331 254.349 235.939 256.118C237.627 257.886 238.472 260.017 238.472 262.509C238.472 265.082 237.627 267.253 235.939 269.021C234.331 270.71 232.2 271.554 229.547 271.554Z" fill="#404040"/>
<path d="M260.477 339.209V324.617H282.064C287.531 324.617 292.315 323.491 296.415 321.24C300.516 318.909 303.691 315.653 305.943 311.472C308.274 307.291 309.44 302.347 309.44 296.638C309.44 291.091 308.274 286.267 305.943 282.167C303.611 277.986 300.395 274.77 296.295 272.519C292.194 270.187 287.451 269.021 282.064 269.021H260.115V254.429H282.305C288.577 254.429 294.365 255.474 299.671 257.565C305.058 259.655 309.721 262.63 313.661 266.489C317.681 270.268 320.776 274.73 322.947 279.875C325.198 285.021 326.324 290.649 326.324 296.759C326.324 302.869 325.198 308.537 322.947 313.763C320.776 318.909 317.721 323.411 313.781 327.27C309.842 331.049 305.179 333.983 299.792 336.074C294.486 338.164 288.737 339.209 282.547 339.209H260.477ZM249.262 339.209V254.429H265.663V339.209H249.262Z" fill="#404040"/>
<path d="M361.116 340.415C355.246 340.415 349.94 339.089 345.197 336.436C340.534 333.702 336.795 330.044 333.981 325.461C331.247 320.798 329.881 315.612 329.881 309.904C329.881 304.196 331.247 299.09 333.981 294.588C336.715 290.005 340.453 286.388 345.197 283.734C349.94 281.001 355.206 279.634 360.995 279.634C366.944 279.634 372.251 281.001 376.914 283.734C381.657 286.388 385.396 290.005 388.129 294.588C390.863 299.09 392.23 304.196 392.23 309.904C392.23 315.612 390.863 320.798 388.129 325.461C385.396 330.044 381.657 333.702 376.914 336.436C372.251 339.089 366.985 340.415 361.116 340.415ZM360.995 325.702C363.97 325.702 366.583 325.059 368.834 323.773C371.165 322.406 372.934 320.557 374.14 318.225C375.426 315.813 376.07 313.08 376.07 310.025C376.07 306.97 375.426 304.276 374.14 301.945C372.854 299.613 371.085 297.804 368.834 296.518C366.583 295.151 363.97 294.468 360.995 294.468C358.101 294.468 355.528 295.151 353.277 296.518C351.026 297.804 349.257 299.613 347.97 301.945C346.684 304.276 346.041 306.97 346.041 310.025C346.041 313.08 346.684 315.813 347.97 318.225C349.257 320.557 351.026 322.406 353.277 323.773C355.528 325.059 358.101 325.702 360.995 325.702Z" fill="#404040"/>
<path d="M427.795 340.415C421.846 340.415 416.499 339.089 411.756 336.436C407.012 333.782 403.274 330.164 400.54 325.582C397.807 320.999 396.44 315.854 396.44 310.145C396.44 304.357 397.807 299.171 400.54 294.588C403.274 290.005 407.012 286.388 411.756 283.734C416.58 281.001 421.926 279.634 427.795 279.634C432.378 279.634 436.599 280.478 440.458 282.167C444.317 283.855 447.654 286.267 450.468 289.402L440.337 299.653C438.81 297.965 436.961 296.679 434.79 295.794C432.699 294.91 430.368 294.468 427.795 294.468C424.901 294.468 422.288 295.151 419.956 296.518C417.705 297.804 415.896 299.613 414.529 301.945C413.243 304.196 412.6 306.889 412.6 310.025C412.6 313.08 413.243 315.813 414.529 318.225C415.896 320.557 417.705 322.406 419.956 323.773C422.288 325.059 424.901 325.702 427.795 325.702C430.448 325.702 432.82 325.26 434.911 324.376C437.081 323.411 438.93 322.044 440.458 320.275L450.709 330.526C447.734 333.742 444.317 336.194 440.458 337.883C436.599 339.571 432.378 340.415 427.795 340.415Z" fill="#404040"/>
<path d="M459.203 262.432C459.203 260.054 460.15 257.773 461.836 256.091C463.521 254.409 465.807 253.464 468.191 253.464C470.575 253.464 472.861 254.409 474.546 256.091C476.232 257.773 477.178 260.054 477.178 262.432V262.432C477.178 264.811 476.232 267.092 474.546 268.774C472.861 270.456 470.575 271.401 468.191 271.401C465.807 271.401 463.521 270.456 461.836 268.774C460.15 267.092 459.203 264.811 459.203 262.432ZM476.138 262.432C476.138 260.329 475.301 258.312 473.811 256.825C472.32 255.338 470.299 254.502 468.191 254.502C466.083 254.502 464.062 255.338 462.571 256.825C461.081 258.312 460.243 260.329 460.243 262.432V262.432C460.222 263.482 460.413 264.526 460.804 265.501C461.195 266.476 461.779 267.362 462.52 268.108C463.262 268.853 464.146 269.442 465.12 269.839C466.094 270.237 467.139 270.435 468.191 270.422C469.25 270.427 470.299 270.222 471.278 269.819C472.256 269.416 473.145 268.823 473.892 268.074C474.639 267.325 475.229 266.435 475.628 265.457C476.027 264.478 476.227 263.43 476.217 262.374L476.138 262.432ZM464.482 257.596H469.015C471.193 257.596 472.783 258.575 472.783 260.69C472.813 261.344 472.617 261.989 472.228 262.517C471.838 263.044 471.279 263.422 470.644 263.588L472.94 266.858H470.212L468.25 263.921H466.798V266.858H464.541L464.482 257.596ZM468.701 262.119C469.741 262.119 470.31 261.61 470.31 260.846C470.31 260.083 469.682 259.554 468.701 259.554H466.739V262.119H468.701Z" fill="#404040"/>
</svg>
